<svg xmlns="http://www.w3.org/2000/svg" viewBox="0 0 900 1125" fill="none" stroke="#141414" stroke-width="3" stroke-linecap="round" stroke-linejoin="round"><g transform="rotate(-7 450 522.5)"><g transform="translate(470,522.5) scale(1.6)">
    <path d="M -110 -120 L 110 -120 L 130 90 L 40 100 L 0 -20 L -40 100 L -130 90 Z"/>
    <path d="M -110 -95 L 110 -95"/>
    <path d="M -18 -95 q 8 26 18 30 q 10 -4 18 -30" stroke-dasharray="6 7"/>
    <path d="M -14 -78 q 14 18 28 0"/>
    <path d="M 96 -40 L 120 -36"/>
    <path d="M 84 30 L 122 38" stroke-dasharray="5 7"/>
    <path d="M -84 30 L -122 38" stroke-dasharray="5 7"/>
  </g></g>
      <path d="M 110 402.5 q 60 -16 120 0 M 70 482.5 q 80 -20 160 0 M 100 572.5 q 60 -14 110 0" stroke-width="2.5" opacity="0.6"/>
      <path d="M 120 945 L 780 945" stroke-width="2" opacity="0.4"/>
      <path d="M 580 945 L 660 825 L 740 945" stroke-width="2" opacity="0.4"/></svg>