<svg xmlns="http://www.w3.org/2000/svg" viewBox="0 0 900 1125" fill="none" stroke="#141414" stroke-width="3" stroke-linecap="round" stroke-linejoin="round"><g transform="rotate(-7 450 522.5)"><g transform="translate(470,522.5) scale(1.6)">
    <path d="M -55 -155 L -20 -168 Q 0 -160 20 -168 L 55 -155 L 148 -90 L 112 -30 L 88 -52 L 88 150 L -88 150 L -88 -52 L -112 -30 L -148 -90 Z"/>
    <path d="M -55 -155 Q -30 -120 0 -118 Q 30 -120 55 -155"/>
    <path d="M -20 -168 L -30 -128 M 20 -168 L 30 -128"/>
    <path d="M 0 -118 L 0 150" stroke-dasharray="7 8"/>
    <path d="M -58 40 l 26 0 M 32 40 l 26 0"/>
    <path d="M -88 120 L 88 120" stroke-dasharray="6 8"/>
    <path d="M 88 -52 L 88 -28 M -88 -52 L -88 -28"/>
  </g></g>
      <path d="M 110 402.5 q 60 -16 120 0 M 70 482.5 q 80 -20 160 0 M 100 572.5 q 60 -14 110 0" stroke-width="2.5" opacity="0.6"/>
      <path d="M 120 945 L 780 945" stroke-width="2" opacity="0.4"/>
      <path d="M 580 945 L 660 825 L 740 945" stroke-width="2" opacity="0.4"/></svg>