<svg xmlns="http://www.w3.org/2000/svg" viewBox="0 0 1200 1400" fill="none" stroke="#141414" stroke-width="3" stroke-linecap="round" stroke-linejoin="round">
    <g transform="translate(560,700) scale(3.2)">
    <circle cx="14" cy="-56" r="17"/>
    <path d="M 8 -38 Q -2 -8 0 34"/>
    <path d="M 2 -18 L 38 2 L 66 -14"/><path d="M 2 -18 L -32 -4 L -50 22"/><path d="M 0 34 L 34 66 L 30 108"/><path d="M 0 34 L -30 62 L -58 54"/>
  </g>
    <path d="M 80 1010 L 1120 1010"/>
    <path d="M 120 1010 q 220 -260 440 -260 q 260 0 520 260" stroke-width="2" opacity="0.5"/>
    <path d="M 260 1010 L 260 880 M 420 1010 L 420 800 M 600 1010 L 600 760 M 780 1010 L 780 800 M 940 1010 L 940 880" stroke-width="2" opacity="0.5"/>
    <circle cx="950" cy="330" r="70" stroke-width="2"/>
  </svg>