<svg xmlns="http://www.w3.org/2000/svg" viewBox="0 0 1920 1080" fill="none" stroke="#141414" stroke-width="3" stroke-linecap="round" stroke-linejoin="round"><g transform="translate(960,600) scale(3.2)">
    <circle cx="14" cy="-56" r="17"/>
    <path d="M 8 -38 Q -2 -8 0 34"/>
    <path d="M 2 -18 L 34 -6 L 54 18"/><path d="M 2 -18 L -34 0 L -62 -12"/><path d="M 0 34 L 12 78 L 44 92"/><path d="M 0 34 L -34 58 L -40 100"/>
  </g><path d="M 100 880 L 1820 880"/><path d="M 300 880 L 300 700 L 420 700 L 420 880 M 520 880 L 520 640 L 660 640 L 660 880 M 1300 880 L 1300 660 L 1430 660 L 1430 880 M 1530 880 L 1530 730 L 1640 730 L 1640 880" stroke-width="2" opacity="0.5"/></svg>