<svg xmlns="http://www.w3.org/2000/svg" viewBox="0 0 1920 1080" fill="none" stroke="#141414" stroke-width="3" stroke-linecap="round" stroke-linejoin="round"><g transform="translate(960,600) scale(3.2)">
    <circle cx="24" cy="-40" r="13"/>
    <path d="M 0 30 Q 4 2 17 -22"/>
    <path d="M 17 -22 L 40 -4 L 46 24"/><path d="M 17 -22 L -12 -16 L -34 -30"/><path d="M 0 30 L 30 40 L 22 72 L 30 78"/><path d="M 0 30 L -16 62 L -30 92 L -21 95"/>
  </g><path d="M 100 880 L 1820 880"/><path d="M 300 880 L 300 700 L 420 700 L 420 880 M 520 880 L 520 640 L 660 640 L 660 880 M 1300 880 L 1300 660 L 1430 660 L 1430 880 M 1530 880 L 1530 730 L 1640 730 L 1640 880" stroke-width="2" opacity="0.5"/></svg>