<svg xmlns="http://www.w3.org/2000/svg" viewBox="0 0 1200 1400" fill="none" stroke="#141414" stroke-width="3" stroke-linecap="round" stroke-linejoin="round">
    <g transform="translate(600,680) scale(2.1)">
    <path d="M -110 -120 L 110 -120 L 130 90 L 40 100 L 0 -20 L -40 100 L -130 90 Z"/>
    <path d="M -110 -95 L 110 -95"/>
    <path d="M -18 -95 q 8 26 18 30 q 10 -4 18 -30" stroke-dasharray="6 7"/>
    <path d="M -14 -78 q 14 18 28 0"/>
    <path d="M 96 -40 L 120 -36"/>
    <path d="M 84 30 L 122 38" stroke-dasharray="5 7"/>
    <path d="M -84 30 L -122 38" stroke-dasharray="5 7"/>
  </g>
    <path d="M 100 1080 L 1100 1080"/>
    <circle cx="600" cy="260" r="110" stroke-width="2"/>
    <path d="M 448 260 l -80 0 M 752 260 l 80 0 M 600 108 l 0 -64 M 494 154 l -46 -46 M 706 154 l 46 -46" stroke-width="2"/>
  </svg>