<svg xmlns="http://www.w3.org/2000/svg" viewBox="0 0 1200 1400" fill="none" stroke="#141414" stroke-width="3" stroke-linecap="round" stroke-linejoin="round">
    <g transform="translate(600,760) scale(3.4)">
    <circle cx="14" cy="-56" r="17"/>
    <path d="M 8 -38 Q -2 -8 0 34"/>
    <path d="M 2 -18 L 34 -6 L 54 18"/><path d="M 2 -18 L -34 0 L -62 -12"/><path d="M 0 34 L 12 78 L 44 92"/><path d="M 0 34 L -34 58 L -40 100"/>
  </g>
    <path d="M 100 1080 L 1100 1080"/>
    <circle cx="600" cy="300" r="120" stroke-width="2"/>
    <path d="M 430 300 l -90 0 M 770 300 l 90 0 M 600 130 l 0 -70 M 480 180 l -50 -50 M 720 180 l 50 -50" stroke-width="2"/>
  </svg>